#Comment line ignore any data following # character 
#Hierarchical Translation and Rotation (.htr) file 
[Header]	
#Header keywords are followed by a single value 
FileType HTR		#Single word string
DataType HTRS		#Translation followed by rotation and scale data
FileVersion 1		#integer
NumSegments 84		#integer
NumFrames 2		#integer
DataFrameRate 30		#integer, data frame rate in this file
EulerRotationOrder ZYX
CalibrationUnits mm
RotationUnits Degrees
GlobalAxisofGravity Y
BoneLengthAxis Y
ScaleFactor 1.00
[SegmentNames&Hierarchy]
#CHILD	PARENT
MASTER GLOBAL
root MASTER
chest root
L_mid_tent01 root
R_mid_tent01 root
spine01 root
Bip01_Neck chest
L_humerus chest
R_humerus chest
weapon_bone chest
Bip01_Head Bip01_Neck
eye_left_bone Bip01_Head
eye_right_bone Bip01_Head
L_forearm L_humerus
L_front_hand L_forearm
L_weapon_bone L_forearm
L_front_hand01_01 L_front_hand
L_front_hand02_01 L_front_hand
L_front_hand03_01 L_front_hand
L_front_hand01_02 L_front_hand01_01
L_front_hand02_02 L_front_hand02_01
L_front_hand03_02 L_front_hand03_01
R_forearm R_humerus
R_front_hand R_forearm
R_weapon_bone R_forearm
R_front_hand01_01 R_front_hand
R_front_hand02_01 R_front_hand
R_front_hand03_01 R_front_hand
R_front_hand01_02 R_front_hand01_01
R_front_hand02_02 R_front_hand02_01
R_front_hand03_02 R_front_hand03_01
null_rope01_connect L_mid_tent01
Rope1_Seg01 null_rope01_connect
Rope1_Seg02 Rope1_Seg01
Rope1_Seg03 Rope1_Seg02
Rope1_Seg04 Rope1_Seg03
Rope1_Seg05 Rope1_Seg04
Rope1_Seg06 Rope1_Seg05
Rope1_Seg07 Rope1_Seg06
Rope1_Seg09 Rope1_Seg07
L_mid_hand01 Rope1_Seg09
L_mid_hand02 Rope1_Seg09
L_mid_hand03 Rope1_Seg09
null_rope02_connect R_mid_tent01
Rope2_Seg01 null_rope02_connect
Rope2_Seg02 Rope2_Seg01
Rope2_Seg03 Rope2_Seg02
Rope2_Seg04 Rope2_Seg03
Rope2_Seg05 Rope2_Seg04
Rope2_Seg06 Rope2_Seg05
Rope2_Seg07 Rope2_Seg06
Rope2_Seg09 Rope2_Seg07
R_mid_hand01 Rope2_Seg09
R_mid_hand02 Rope2_Seg09
R_mid_hand03 Rope2_Seg09
spine02 spine01
spine03 spine02
pelvis spine03
null_rope03_connect pelvis
null_rope04_connect pelvis
Rope3_Seg01 null_rope03_connect
Rope3_Seg02 Rope3_Seg01
Rope3_Seg03 Rope3_Seg02
Rope3_Seg04 Rope3_Seg03
Rope3_Seg05 Rope3_Seg04
Rope3_Seg06 Rope3_Seg05
Rope3_Seg07 Rope3_Seg06
Rope3_Seg08 Rope3_Seg07
Rope3_Seg09 Rope3_Seg08
R_rear_hand01 Rope3_Seg09
R_rear_hand02 Rope3_Seg09
R_rear_hand03 Rope3_Seg09
Rope4_Seg01 null_rope04_connect
Rope4_Seg02 Rope4_Seg01
Rope4_Seg03 Rope4_Seg02
Rope4_Seg04 Rope4_Seg03
Rope4_Seg05 Rope4_Seg04
Rope4_Seg06 Rope4_Seg05
Rope4_Seg07 Rope4_Seg06
Rope4_Seg08 Rope4_Seg07
Rope4_Seg09 Rope4_Seg08
L_rear_hand01 Rope4_Seg09
L_rear_hand02 Rope4_Seg09
L_rear_hand03 Rope4_Seg09
[BasePosition]
#SegmentName Tx, Ty, Tz, Rx, Ry, Rz, BoneLength
MASTER 0.000000 0.000000 0.000000 -90.000000 0.000000 0.000000 10.000000 
root 0.000000 0.000000 0.000000 0.000000 0.000000 0.000000 10.000000 
chest 0.000000 0.000000 0.000000 0.000000 0.000000 0.000000 10.000000 
L_mid_tent01 0.000000 0.000000 0.000000 0.000000 0.000000 0.000000 10.000000 
R_mid_tent01 0.000000 0.000000 0.000000 0.000000 0.000000 0.000000 10.000000 
spine01 0.000000 0.000000 0.000000 0.000000 0.000000 0.000000 10.000000 
Bip01_Neck 0.000000 0.000000 0.000000 0.000000 0.000000 0.000000 10.000000 
L_humerus 0.000000 0.000000 0.000000 0.000000 0.000000 0.000000 10.000000 
R_humerus 0.000000 0.000000 0.000000 0.000000 0.000000 0.000000 10.000000 
weapon_bone 0.000000 0.000000 0.000000 0.000000 0.000000 0.000000 10.000000 
Bip01_Head 0.000000 0.000000 0.000000 0.000000 0.000000 0.000000 10.000000 
eye_left_bone 0.000000 0.000000 0.000000 0.000000 0.000000 0.000000 10.000000 
eye_right_bone 0.000000 0.000000 0.000000 0.000000 0.000000 0.000000 10.000000 
L_forearm 0.000000 0.000000 0.000000 0.000000 0.000000 0.000000 10.000000 
L_front_hand 0.000000 0.000000 0.000000 0.000000 0.000000 0.000000 10.000000 
L_weapon_bone 0.000000 0.000000 0.000000 0.000000 0.000000 0.000000 10.000000 
L_front_hand01_01 0.000000 0.000000 0.000000 0.000000 0.000000 0.000000 10.000000 
L_front_hand02_01 0.000000 0.000000 0.000000 0.000000 0.000000 0.000000 10.000000 
L_front_hand03_01 0.000000 0.000000 0.000000 0.000000 0.000000 0.000000 10.000000 
L_front_hand01_02 0.000000 0.000000 0.000000 0.000000 0.000000 0.000000 10.000000 
L_front_hand02_02 0.000000 0.000000 0.000000 0.000000 0.000000 0.000000 10.000000 
L_front_hand03_02 0.000000 0.000000 0.000000 0.000000 0.000000 0.000000 10.000000 
R_forearm 0.000000 0.000000 0.000000 0.000000 0.000000 0.000000 10.000000 
R_front_hand 0.000000 0.000000 0.000000 0.000000 0.000000 0.000000 10.000000 
R_weapon_bone 0.000000 0.000000 0.000000 0.000000 0.000000 0.000000 10.000000 
R_front_hand01_01 0.000000 0.000000 0.000000 0.000000 0.000000 0.000000 10.000000 
R_front_hand02_01 0.000000 0.000000 0.000000 0.000000 0.000000 0.000000 10.000000 
R_front_hand03_01 0.000000 0.000000 0.000000 0.000000 0.000000 0.000000 10.000000 
R_front_hand01_02 0.000000 0.000000 0.000000 0.000000 0.000000 0.000000 10.000000 
R_front_hand02_02 0.000000 0.000000 0.000000 0.000000 0.000000 0.000000 10.000000 
R_front_hand03_02 0.000000 0.000000 0.000000 0.000000 0.000000 0.000000 10.000000 
null_rope01_connect 0.000000 0.000000 0.000000 0.000000 0.000000 0.000000 10.000000 
Rope1_Seg01 0.000000 0.000000 0.000000 0.000000 0.000000 0.000000 10.000000 
Rope1_Seg02 0.000000 0.000000 0.000000 0.000000 0.000000 0.000000 10.000000 
Rope1_Seg03 0.000000 0.000000 0.000000 0.000000 0.000000 0.000000 10.000000 
Rope1_Seg04 0.000000 0.000000 0.000000 0.000000 0.000000 0.000000 10.000000 
Rope1_Seg05 0.000000 0.000000 0.000000 0.000000 0.000000 0.000000 10.000000 
Rope1_Seg06 0.000000 0.000000 0.000000 0.000000 0.000000 0.000000 10.000000 
Rope1_Seg07 0.000000 0.000000 0.000000 0.000000 0.000000 0.000000 10.000000 
Rope1_Seg09 0.000000 0.000000 0.000000 0.000000 0.000000 0.000000 10.000000 
L_mid_hand01 0.000000 0.000000 0.000000 0.000000 0.000000 0.000000 10.000000 
L_mid_hand02 0.000000 0.000000 0.000000 0.000000 0.000000 0.000000 10.000000 
L_mid_hand03 0.000000 0.000000 0.000000 0.000000 0.000000 0.000000 10.000000 
null_rope02_connect 0.000000 0.000000 0.000000 0.000000 0.000000 0.000000 10.000000 
Rope2_Seg01 0.000000 0.000000 0.000000 0.000000 0.000000 0.000000 10.000000 
Rope2_Seg02 0.000000 0.000000 0.000000 0.000000 0.000000 0.000000 10.000000 
Rope2_Seg03 0.000000 0.000000 0.000000 0.000000 0.000000 0.000000 10.000000 
Rope2_Seg04 0.000000 0.000000 0.000000 0.000000 0.000000 0.000000 10.000000 
Rope2_Seg05 0.000000 0.000000 0.000000 0.000000 0.000000 0.000000 10.000000 
Rope2_Seg06 0.000000 0.000000 0.000000 0.000000 0.000000 0.000000 10.000000 
Rope2_Seg07 0.000000 0.000000 0.000000 0.000000 0.000000 0.000000 10.000000 
Rope2_Seg09 0.000000 0.000000 0.000000 0.000000 0.000000 0.000000 10.000000 
R_mid_hand01 0.000000 0.000000 0.000000 0.000000 0.000000 0.000000 10.000000 
R_mid_hand02 0.000000 0.000000 0.000000 0.000000 0.000000 0.000000 10.000000 
R_mid_hand03 0.000000 0.000000 0.000000 0.000000 0.000000 0.000000 10.000000 
spine02 0.000000 0.000000 0.000000 0.000000 0.000000 0.000000 10.000000 
spine03 0.000000 0.000000 0.000000 0.000000 0.000000 0.000000 10.000000 
pelvis 0.000000 0.000000 0.000000 0.000000 0.000000 0.000000 10.000000 
null_rope03_connect 0.000000 0.000000 0.000000 0.000000 0.000000 0.000000 10.000000 
null_rope04_connect 0.000000 0.000000 0.000000 0.000000 0.000000 0.000000 10.000000 
Rope3_Seg01 0.000000 0.000000 0.000000 0.000000 0.000000 0.000000 10.000000 
Rope3_Seg02 0.000000 0.000000 0.000000 0.000000 0.000000 0.000000 10.000000 
Rope3_Seg03 0.000000 0.000000 0.000000 0.000000 0.000000 0.000000 10.000000 
Rope3_Seg04 0.000000 0.000000 0.000000 0.000000 0.000000 0.000000 10.000000 
Rope3_Seg05 0.000000 0.000000 0.000000 0.000000 0.000000 0.000000 10.000000 
Rope3_Seg06 0.000000 0.000000 0.000000 0.000000 0.000000 0.000000 10.000000 
Rope3_Seg07 0.000000 0.000000 0.000000 0.000000 0.000000 0.000000 10.000000 
Rope3_Seg08 0.000000 0.000000 0.000000 0.000000 0.000000 0.000000 10.000000 
Rope3_Seg09 0.000000 0.000000 0.000000 0.000000 0.000000 0.000000 10.000000 
R_rear_hand01 0.000000 0.000000 0.000000 0.000000 0.000000 0.000000 10.000000 
R_rear_hand02 0.000000 0.000000 0.000000 0.000000 0.000000 0.000000 10.000000 
R_rear_hand03 0.000000 0.000000 0.000000 0.000000 0.000000 0.000000 10.000000 
Rope4_Seg01 0.000000 0.000000 0.000000 0.000000 0.000000 0.000000 10.000000 
Rope4_Seg02 0.000000 0.000000 0.000000 0.000000 0.000000 0.000000 10.000000 
Rope4_Seg03 0.000000 0.000000 0.000000 0.000000 0.000000 0.000000 10.000000 
Rope4_Seg04 0.000000 0.000000 0.000000 0.000000 0.000000 0.000000 10.000000 
Rope4_Seg05 0.000000 0.000000 0.000000 0.000000 0.000000 0.000000 10.000000 
Rope4_Seg06 0.000000 0.000000 0.000000 0.000000 0.000000 0.000000 10.000000 
Rope4_Seg07 0.000000 0.000000 0.000000 0.000000 0.000000 0.000000 10.000000 
Rope4_Seg08 0.000000 0.000000 0.000000 0.000000 0.000000 0.000000 10.000000 
Rope4_Seg09 0.000000 0.000000 0.000000 0.000000 0.000000 0.000000 10.000000 
L_rear_hand01 0.000000 0.000000 0.000000 0.000000 0.000000 0.000000 10.000000 
L_rear_hand02 0.000000 0.000000 0.000000 0.000000 0.000000 0.000000 10.000000 
L_rear_hand03 0.000000 0.000000 0.000000 0.000000 0.000000 0.000000 10.000000 
#Beginning of Data. Separated by tabs
#Fr	Tx	Ty	Tz	Rx	Ry	Rz	SF
[MASTER]
11 0.000000 0.000000 0.000000 0.001660 0.001660 0.001660 0.000000
12 0.000000 0.000000 0.000000 0.001660 0.001660 0.001660 0.000000
[root]
11 -2.271610 -15.191620 1472.033936 -91.706375 7.188744 -90.037125 1472.114136
12 -2.426379 -15.779739 1468.234375 -91.706375 7.188744 -90.037125 1468.321289
[chest]
11 -84.512650 -34.090519 0.000000 -2.117274 0.462005 -179.268204 91.129311
12 -84.512650 -34.090519 0.000000 -2.117274 0.462005 -179.268204 91.129311
[L_mid_tent01]
11 27.299511 22.177458 -249.918259 -11.212391 7.173965 46.128521 252.381134
12 27.299511 22.177458 -249.918259 -11.212391 7.173965 46.128521 252.381134
[R_mid_tent01]
11 23.228794 24.509907 226.238495 -173.453110 -7.865565 48.320805 228.744751
12 23.228794 24.509907 226.238495 -173.453110 -7.865565 48.320805 228.744751
[spine01]
11 -0.361383 -0.195265 0.000000 -0.000001 -0.000007 22.052340 0.410763
12 -0.361383 -0.195265 0.000000 -0.000001 -0.000007 22.052340 0.410763
[Bip01_Neck]
11 165.484543 71.581718 0.000119 175.896118 1.177290 24.871183 180.302734
12 165.484543 71.581718 0.000119 175.896118 1.177290 24.871183 180.302734
[L_humerus]
11 -13.983130 -135.272980 -120.471481 177.317520 0.814944 177.327347 181.680161
12 -13.983130 -135.272980 -120.471481 177.317520 0.814944 177.327347 181.680161
[R_humerus]
11 -13.983309 -135.273102 125.287651 -179.087967 -0.295690 175.068390 184.909012
12 -13.983309 -135.273102 125.287651 -179.087967 -0.295690 175.068390 184.909012
[weapon_bone]
11 235.964890 -300.705902 0.000000 0.000000 -89.951546 -128.212341 382.234833
12 235.964890 -300.705902 0.000000 0.000000 -89.951546 -128.212341 382.234833
[Bip01_Head]
11 97.775497 22.186661 5.309563 3.366012 3.339071 -18.399078 100.401627
12 97.775497 22.186661 5.309563 3.366013 3.339072 -18.399080 100.401627
[eye_left_bone]
11 -24.626970 125.451866 -64.772606 0.000000 -90.000000 -99.840431 143.318359
12 -24.626970 125.451866 -64.772606 0.000000 -90.000000 -99.840431 143.318359
[eye_right_bone]
11 -24.626970 125.451866 64.327362 0.000000 -89.965736 80.156380 143.117676
12 -24.626970 125.451866 64.327362 0.000000 -89.965736 80.156380 143.117676
[L_forearm]
11 322.776093 0.000000 -0.000119 0.001372 -0.001904 -161.553818 322.776093
12 322.776093 0.000000 -0.000119 0.001372 -0.001904 -161.553818 322.776093
[L_front_hand]
11 241.149185 -0.042021 -3.300071 -179.659958 -2.242151 -0.019832 241.171753
12 241.149185 -0.042021 -3.300071 -179.659958 -2.242151 -0.019832 241.171753
[L_weapon_bone]
11 156.183838 0.000000 0.000000 0.000014 0.000007 0.000001 156.183838
12 156.183838 0.000000 0.000000 0.000014 0.000007 0.000001 156.183838
[L_front_hand01_01]
11 86.095154 20.947098 -0.655860 0.405585 -0.442306 -4.620490 88.609184
12 86.095154 20.947098 -0.655860 0.405585 -0.442306 -4.620490 88.609184
[L_front_hand02_01]
11 86.935165 -11.437475 24.513514 116.959450 3.630817 1.495453 91.046425
12 86.935165 -11.437475 24.513514 116.959450 3.630817 1.495453 91.046425
[L_front_hand03_01]
11 86.637497 -14.123976 -20.424902 -118.419884 -4.660555 -0.155069 90.126129
12 86.637497 -14.123976 -20.424902 -118.419884 -4.660555 -0.155069 90.126129
[L_front_hand01_02]
11 71.020905 -0.000179 0.000030 0.000004 -0.000005 -8.379269 71.020905
12 71.020905 -0.000179 0.000030 0.000004 -0.000005 -8.379269 71.020905
[L_front_hand02_02]
11 71.020927 -0.000119 0.000060 -0.000005 -0.000004 -8.379259 71.020927
12 71.020927 -0.000119 0.000060 -0.000005 -0.000004 -8.379259 71.020927
[L_front_hand03_02]
11 71.020905 -0.000060 0.000060 0.000015 -0.000040 -8.379267 71.020905
12 71.020905 -0.000060 0.000060 0.000015 -0.000040 -8.379267 71.020905
[R_forearm]
11 322.776428 -0.000060 0.000030 0.066610 0.203476 -163.260239 322.776428
12 322.776428 -0.000060 0.000030 0.066610 0.203476 -163.260239 322.776428
[R_front_hand]
11 238.847015 -0.006795 2.210259 -0.270529 1.703932 2.322530 238.857239
12 238.847015 -0.006795 2.210259 -0.270529 1.703932 2.322530 238.857239
[R_weapon_bone]
11 155.664093 0.002503 -0.000030 0.003487 0.001180 -90.988930 155.664078
12 155.664093 0.002503 -0.000030 0.003487 0.001180 -90.988930 155.664078
[R_front_hand01_01]
11 87.624611 14.231146 22.918642 -116.960213 3.496675 -1.324139 91.683487
12 87.624611 14.231146 22.918642 -116.960213 3.496675 -1.324139 91.683487
[R_front_hand02_01]
11 89.356956 14.367283 -19.491137 118.419647 -4.257089 0.609827 92.579636
12 89.356956 14.367283 -19.491137 118.419647 -4.257089 0.609827 92.579636
[R_front_hand03_01]
11 87.286232 -22.307278 -0.143439 -0.387970 -0.231462 4.232001 90.091743
12 87.286232 -22.307278 -0.143439 -0.387970 -0.231462 4.232001 90.091743
[R_front_hand01_02]
11 71.020905 0.000060 0.000119 -0.000005 -0.000020 8.379271 71.020905
12 71.020905 0.000060 0.000119 -0.000005 -0.000020 8.379271 71.020905
[R_front_hand02_02]
11 71.020844 -0.000030 -0.000119 0.000000 -0.000021 8.379271 71.020836
12 71.020844 -0.000030 -0.000119 0.000000 -0.000021 8.379271 71.020836
[R_front_hand03_02]
11 71.020905 0.000000 0.000030 -0.000001 -0.000020 8.379275 71.020905
12 71.020905 0.000000 0.000030 -0.000001 -0.000020 8.379275 71.020905
[null_rope01_connect]
11 328.732483 0.000000 -0.000238 160.552872 -75.066147 -124.625038 328.732483
12 328.732483 0.000000 -0.000238 160.552872 -75.066147 -124.625038 328.732483
[Rope1_Seg01]
11 0.000000 0.000000 0.000000 -120.558548 52.202835 -114.315948 0.000000
12 0.000000 0.000000 0.000000 -124.281479 51.892990 -116.283371 0.000000
[Rope1_Seg02]
11 139.999863 -0.000179 0.000000 40.341789 -12.672595 -17.397900 139.999863
12 139.999863 -0.000179 0.000000 42.640949 -12.119134 -18.329460 139.999863
[Rope1_Seg03]
11 139.999924 0.000060 -0.000060 18.040352 -15.529706 -3.711288 139.999924
12 139.999924 0.000060 -0.000060 19.276402 -15.784737 -4.118261 139.999924
[Rope1_Seg04]
11 139.999924 -0.000060 -0.000119 6.925326 -11.346583 1.195020 139.999924
12 139.999924 -0.000060 -0.000119 7.341213 -11.514289 1.063669 139.999924
[Rope1_Seg05]
11 139.999832 0.000119 -0.000060 0.043541 0.481638 -0.626270 139.999832
12 139.999832 0.000119 -0.000060 -0.039014 0.367526 -0.344662 139.999832
[Rope1_Seg06]
11 139.999954 0.000119 -0.000060 -6.754598 11.057892 -4.067895 139.999954
12 139.999954 0.000119 -0.000060 -7.004022 10.728868 -3.175221 139.999954
[Rope1_Seg07]
11 139.999985 0.000060 0.000000 -37.335640 25.233669 -6.236332 139.999985
12 139.999985 0.000060 0.000000 -33.220947 23.824583 -4.125420 139.999985
[Rope1_Seg09]
11 121.602913 0.000119 -0.000089 -89.793175 -1.359789 0.847147 121.602913
12 121.602913 0.000119 -0.000089 -89.793175 -1.359789 0.847147 121.602913
[L_mid_hand01]
11 103.859421 1.038730 8.195221 106.855484 -31.239275 -9.461397 104.187431
12 103.859421 1.038730 8.195221 106.855484 -31.239275 -9.461397 104.187431
[L_mid_hand02]
11 105.572853 -4.139662 -10.864139 -142.331345 25.752670 -28.774628 106.211075
12 105.572853 -4.139662 -10.864139 -142.331345 25.752670 -28.774628 106.211075
[L_mid_hand03]
11 104.641464 17.579376 -3.913581 -16.122810 9.734291 34.223598 106.179977
12 104.641464 17.579376 -3.913581 -16.122810 9.734291 34.223598 106.179977
[null_rope02_connect]
11 328.732849 0.000179 -0.000119 174.610336 81.478409 -39.424759 328.732849
12 328.732849 0.000179 -0.000119 174.610336 81.478409 -39.424759 328.732849
[Rope2_Seg01]
11 0.000076 0.000110 0.000153 143.014160 48.510376 -82.240074 0.000203
12 0.000076 0.000110 0.000153 146.700150 48.620205 -79.023193 0.000203
[Rope2_Seg02]
11 139.999741 -0.000060 -0.000119 -8.332648 2.274580 8.255282 139.999756
12 139.999741 -0.000060 -0.000119 -9.722954 2.400624 9.216029 139.999756
[Rope2_Seg03]
11 140.000107 0.000030 0.000000 -9.682363 -1.220220 13.302813 140.000107
12 140.000107 0.000030 0.000000 -10.936973 -0.515647 14.081918 140.000107
[Rope2_Seg04]
11 139.999802 0.000000 -0.000060 -1.249518 6.330905 -1.395023 139.999802
12 139.999802 0.000000 -0.000060 -1.427778 3.704122 0.173234 139.999802
[Rope2_Seg05]
11 139.999985 -0.000060 0.000119 1.439745 3.810026 -3.350779 139.999985
12 139.999985 -0.000060 0.000119 1.416875 2.570550 -2.870928 139.999985
[Rope2_Seg06]
11 139.999893 -0.000030 -0.000119 0.098250 1.209040 -0.689743 139.999893
12 139.999893 -0.000030 -0.000119 0.062764 0.773455 -0.472715 139.999893
[Rope2_Seg07]
11 139.999893 0.000060 -0.000060 0.048389 0.738758 -0.423368 139.999893
12 139.999893 0.000060 -0.000060 0.020234 0.476500 -0.290051 139.999893
[Rope2_Seg09]
11 121.338966 0.000089 -0.000060 33.793236 -1.359788 -0.847141 121.338966
12 121.338966 0.000089 -0.000060 33.793236 -1.359788 -0.847141 121.338966
[R_mid_hand01]
11 104.680779 11.144459 -10.335981 -41.523792 25.424656 28.595957 105.778534
12 104.680779 11.144459 -10.335981 -41.523792 25.424656 28.595957 105.778534
[R_mid_hand02]
11 104.070427 2.443552 8.231699 72.847389 -32.746803 10.013901 104.424065
12 104.070427 2.443552 8.231699 72.847389 -32.746803 10.013901 104.424065
[R_mid_hand03]
11 106.028137 -11.221827 -5.996406 -167.901306 10.259192 -37.009720 106.788818
12 106.028137 -11.221827 -5.996406 -167.901306 10.259192 -37.009720 106.788818
[spine02]
11 129.756927 0.001550 0.000119 0.360061 -4.044797 -12.915058 129.756927
12 129.756927 0.001550 0.000119 0.360061 -4.044797 -12.915058 129.756927
[spine03]
11 78.613846 0.087372 -4.898873 1.896495 3.831288 16.473045 78.766380
12 78.613846 0.087372 -4.898873 1.896495 3.831288 16.473045 78.766380
[pelvis]
11 169.435242 0.051022 0.000000 -0.060465 -0.180225 14.087930 169.435257
12 169.435242 0.051022 0.000000 -0.060465 -0.180225 14.087930 169.435257
[null_rope03_connect]
11 -1.257226 -2.466202 137.391083 -168.629776 -89.386429 -148.244614 137.418976
12 -1.257226 -2.466202 137.391083 -168.629776 -89.386429 -148.244614 137.418976
[null_rope04_connect]
11 -1.259640 -2.480268 -137.844437 -168.629776 -89.386429 -148.244614 137.872513
12 -1.259640 -2.480268 -137.844437 -168.629776 -89.386429 -148.244614 137.872513
[Rope3_Seg01]
11 0.000000 0.000000 0.000000 -132.694885 23.599852 -79.807304 0.000000
12 0.000000 0.000000 0.000000 -133.686890 24.866047 -81.902191 0.000000
[Rope3_Seg02]
11 139.999924 -0.000119 0.000060 0.857048 5.427662 -0.442949 139.999924
12 139.999924 -0.000119 0.000060 0.952071 4.784094 -1.542670 139.999924
[Rope3_Seg03]
11 139.999924 -0.000119 0.000119 1.641121 8.116443 -1.424074 139.999924
12 139.999924 -0.000119 0.000119 1.525341 7.013064 -3.042023 139.999924
[Rope3_Seg04]
11 139.999924 0.000119 0.000000 3.818371 16.321167 -6.999508 139.999924
12 139.999924 0.000119 0.000000 2.416427 13.767986 -10.680253 139.999924
[Rope3_Seg05]
11 139.999924 -0.000238 0.000060 -4.738352 -2.647019 15.331459 139.999924
12 139.999924 -0.000238 0.000060 -2.987933 -0.036791 16.619656 139.999924
[Rope3_Seg06]
11 139.999893 -0.000119 -0.000060 -7.160909 -6.172294 11.516841 139.999893
12 139.999893 -0.000119 -0.000060 -6.232503 -3.787068 13.454288 139.999893
[Rope3_Seg07]
11 139.999771 0.000060 -0.000119 -2.689937 -2.260350 4.672482 139.999771
12 139.999771 0.000060 -0.000119 -2.505955 -1.306885 5.380107 139.999771
[Rope3_Seg08]
11 139.999985 -0.000060 0.000000 -1.445747 -1.419883 2.616687 139.999985
12 139.999985 -0.000060 0.000000 -1.411609 -0.871526 3.020035 139.999985
[Rope3_Seg09]
11 90.185997 -0.000179 -0.000060 89.793228 -1.359877 -0.847183 90.185997
12 90.185997 -0.000179 -0.000060 89.793228 -1.359877 -0.847183 90.185997
[R_rear_hand01]
11 103.366196 -6.073594 -10.757982 -161.551193 16.666374 -30.088671 104.101845
12 103.366196 -6.073594 -10.757982 -161.551193 16.666374 -30.088671 104.101845
[R_rear_hand02]
11 100.509819 12.039542 -7.992327 -34.280552 19.289745 28.875523 101.543350
12 100.509819 12.039542 -7.992327 -34.280552 19.289745 28.875523 101.543350
[R_rear_hand03]
11 101.539970 5.215704 5.435467 83.366440 -30.933914 7.284830 101.819031
12 101.539970 5.215704 5.435467 83.366440 -30.933914 7.284830 101.819031
[Rope4_Seg01]
11 0.000010 0.000038 -0.000114 52.073822 18.286753 -84.722069 0.000121
12 0.000010 0.000038 -0.000114 51.214325 17.491957 -87.120262 0.000121
[Rope4_Seg02]
11 139.999985 0.000060 0.000119 2.044644 -0.039304 -6.304023 139.999985
12 139.999985 0.000060 0.000119 1.787409 1.507295 -5.408350 139.999985
[Rope4_Seg03]
11 139.999924 0.000000 -0.000238 1.921177 0.296016 -6.907686 139.999924
12 139.999924 0.000000 -0.000238 1.875806 2.188016 -5.867194 139.999924
[Rope4_Seg04]
11 139.999985 0.000000 0.000119 2.250141 2.851801 -9.150872 139.999985
12 139.999985 0.000000 0.000119 2.601940 5.609755 -7.384800 139.999985
[Rope4_Seg05]
11 139.999802 -0.000060 -0.000119 -0.000121 -6.214093 -1.974664 139.999802
12 139.999802 -0.000060 -0.000119 -0.016542 -6.963181 -2.469984 139.999802
[Rope4_Seg06]
11 139.999924 0.000000 0.000060 -0.604743 -9.928538 3.321200 139.999924
12 139.999924 0.000000 0.000060 -0.717238 -12.025919 1.395124 139.999924
[Rope4_Seg07]
11 139.999802 0.000000 0.000000 0.236729 -5.105584 0.723805 139.999802
12 139.999802 0.000000 0.000000 0.224418 -5.692800 -0.197670 139.999802
[Rope4_Seg08]
11 139.999924 0.000000 0.000119 -1.283779 -3.081300 0.333061 139.999924
12 139.999924 0.000000 0.000119 -1.304146 -3.393875 -0.182369 139.999924
[Rope4_Seg09]
11 90.185791 0.000060 0.000060 -135.617828 2.228885 0.850567 90.185791
12 90.185791 0.000060 0.000060 -135.617828 2.228885 0.850567 90.185791
[L_rear_hand01]
11 101.696655 -8.392275 -7.654577 -34.454281 -18.946800 151.655121 102.329041
12 101.696655 -8.392275 -7.654577 -34.454281 -18.946800 151.655121 102.329041
[L_rear_hand02]
11 102.726799 -1.568258 5.773216 83.407906 30.330435 172.796509 102.900848
12 102.726799 -1.568258 5.773216 83.407906 30.330435 172.796509 102.900848
[L_rear_hand03]
11 104.552910 9.721220 -10.420293 -161.379868 -16.473232 -150.512238 105.519653
12 104.552910 9.721220 -10.420293 -161.379868 -16.473232 -150.512238 105.519653
